<?xml version="1.0" encoding="UTF-8"?>
<!DOCTYPE svg PUBLIC "-//W3C//DTD SVG 1.1//EN" "http://www.w3.org/Graphics/SVG/1.1/DTD/svg11.dtd">
<svg xmlns="http://www.w3.org/2000/svg" version="1.1" width="414px" height="399px" style="shape-rendering:geometricPrecision; text-rendering:geometricPrecision; image-rendering:optimizeQuality; fill-rule:evenodd; clip-rule:evenodd" xmlns:xlink="http://www.w3.org/1999/xlink">
<g><path style="opacity:1" fill="#f5f7fb" d="M -0.5,-0.5 C 137.5,-0.5 275.5,-0.5 413.5,-0.5C 413.5,132.5 413.5,265.5 413.5,398.5C 275.5,398.5 137.5,398.5 -0.5,398.5C -0.5,265.5 -0.5,132.5 -0.5,-0.5 Z"/></g>
<g><path style="opacity:1" fill="#3e3c54" d="M 163.5,252.5 C 163.158,251.662 162.492,251.328 161.5,251.5C 162.614,250.115 163.614,248.615 164.5,247C 162.316,245.102 161.983,242.936 163.5,240.5C 164.829,243.48 167.163,244.813 170.5,244.5C 170.732,238.38 170.065,232.38 168.5,226.5C 167.728,222.548 167.395,218.548 167.5,214.5C 168.434,213.432 168.768,212.099 168.5,210.5C 171.5,210.5 174.5,210.5 177.5,210.5C 177.963,213.482 178.296,216.482 178.5,219.5C 181.518,219.335 184.518,219.502 187.5,220C 188.653,221.883 190.319,222.716 192.5,222.5C 192.5,223.5 192.5,224.5 192.5,225.5C 195.167,225.5 197.833,225.5 200.5,225.5C 200.5,227.167 200.5,228.833 200.5,230.5C 211.464,231.499 222.464,232.165 233.5,232.5C 244.34,232.683 255.007,232.016 265.5,230.5C 265.5,229.167 265.5,227.833 265.5,226.5C 269.167,226.5 272.833,226.5 276.5,226.5C 276.421,225.07 276.754,223.736 277.5,222.5C 281.41,222.219 284.41,220.552 286.5,217.5C 290.217,219.344 294.217,220.011 298.5,219.5C 298.5,216.5 298.5,213.5 298.5,210.5C 300.262,210.643 301.929,210.309 303.5,209.5C 304.487,206.232 304.82,202.898 304.5,199.5C 309.482,198.947 314.482,198.613 319.5,198.5C 319.059,188.021 320.059,177.688 322.5,167.5C 323.524,166.147 324.857,165.48 326.5,165.5C 326.5,161.833 326.5,158.167 326.5,154.5C 327.833,154.5 329.167,154.5 330.5,154.5C 330.5,147.5 330.5,140.5 330.5,133.5C 328.549,133.773 327.049,133.107 326,131.5C 325.501,125.843 325.334,120.176 325.5,114.5C 324.5,114.5 323.5,114.5 322.5,114.5C 322.013,109.821 321.347,105.154 320.5,100.5C 319.36,97.6843 317.36,96.0177 314.5,95.5C 313.305,92.7889 311.472,90.4555 309,88.5C 308.502,85.1832 308.335,81.8499 308.5,78.5C 305.692,78.3067 303.025,77.64 300.5,76.5C 299.361,73.9963 298.694,71.3297 298.5,68.5C 295.167,68.5 291.833,68.5 288.5,68.5C 288.5,67.5 288.5,66.5 288.5,65.5C 287.167,65.5 285.833,65.5 284.5,65.5C 281.154,57.7256 275.154,54.3923 266.5,55.5C 266.67,54.1779 266.337,53.0113 265.5,52C 261.848,51.5014 258.182,51.3347 254.5,51.5C 254.5,49.8333 254.5,48.1667 254.5,46.5C 252.833,46.5 251.167,46.5 249.5,46.5C 250.322,40.7907 248.489,39.4573 244,42.5C 243.667,42.1667 243.333,41.8333 243,41.5C 242.506,43.1341 242.34,44.8008 242.5,46.5C 237.5,46.5 232.5,46.5 227.5,46.5C 227.66,44.8008 227.494,43.1341 227,41.5C 225.286,40.0745 223.953,40.4078 223,42.5C 221.513,41.2586 220.68,41.7586 220.5,44C 221.054,45.5505 221.72,47.0505 222.5,48.5C 222.392,49.4419 222.059,50.2753 221.5,51C 214.508,51.4996 207.508,51.6663 200.5,51.5C 200.5,53.5 200.5,55.5 200.5,57.5C 196.833,57.5 193.167,57.5 189.5,57.5C 189.682,59.5914 189.348,61.5914 188.5,63.5C 183.616,65.7927 178.616,67.4593 173.5,68.5C 173.037,71.4824 172.704,74.4824 172.5,77.5C 170.61,77.2965 169.11,77.9632 168,79.5C 168.394,84.0577 166.727,87.391 163,89.5C 162.329,88.7476 161.496,88.4142 160.5,88.5C 158.11,85.9717 155.11,84.4717 151.5,84C 137.166,80.4689 129.166,85.8022 127.5,100C 127.443,102.96 127.943,105.793 129,108.5C 130.356,109.38 131.856,109.714 133.5,109.5C 133.527,111.199 134.194,112.533 135.5,113.5C 132.459,114.199 130.792,116.199 130.5,119.5C 129.127,119.343 127.793,119.51 126.5,120C 117.251,127.247 109.417,135.747 103,145.5C 102.501,140.511 102.334,135.511 102.5,130.5C 110.164,70.3348 142.831,30.8348 200.5,12C 256.29,0.0632092 302.79,15.5632 340,58.5C 367.154,95.4111 374.487,136.078 362,180.5C 344.697,229.739 310.53,259.906 259.5,271C 225.168,276.7 193.168,270.533 163.5,252.5 Z"/></g>
<g><path style="opacity:1" fill="#39374e" d="M 167.5,214.5 C 164.928,204.388 162.761,194.055 161,183.5C 159.842,167.112 158.175,150.778 156,134.5C 155.751,133.376 155.251,132.376 154.5,131.5C 151.941,130.392 149.608,129.059 147.5,127.5C 147.51,121.308 150.51,117.475 156.5,116C 162.456,111.013 164.123,105.18 161.5,98.5C 162.263,97.7321 163.263,97.2321 164.5,97C 165.059,96.2753 165.392,95.4419 165.5,94.5C 163.597,92.7105 161.93,90.7105 160.5,88.5C 161.496,88.4142 162.329,88.7476 163,89.5C 166.727,87.391 168.394,84.0577 168,79.5C 169.11,77.9632 170.61,77.2965 172.5,77.5C 172.704,74.4824 173.037,71.4824 173.5,68.5C 178.616,67.4593 183.616,65.7927 188.5,63.5C 189.348,61.5914 189.682,59.5914 189.5,57.5C 193.167,57.5 196.833,57.5 200.5,57.5C 200.5,55.5 200.5,53.5 200.5,51.5C 207.508,51.6663 214.508,51.4996 221.5,51C 222.059,50.2753 222.392,49.4419 222.5,48.5C 221.72,47.0505 221.054,45.5505 220.5,44C 220.68,41.7586 221.513,41.2586 223,42.5C 223.953,40.4078 225.286,40.0745 227,41.5C 227.494,43.1341 227.66,44.8008 227.5,46.5C 232.5,46.5 237.5,46.5 242.5,46.5C 242.34,44.8008 242.506,43.1341 243,41.5C 243.333,41.8333 243.667,42.1667 244,42.5C 248.489,39.4573 250.322,40.7907 249.5,46.5C 251.167,46.5 252.833,46.5 254.5,46.5C 254.5,48.1667 254.5,49.8333 254.5,51.5C 258.182,51.3347 261.848,51.5014 265.5,52C 266.337,53.0113 266.67,54.1779 266.5,55.5C 275.154,54.3923 281.154,57.7256 284.5,65.5C 285.833,65.5 287.167,65.5 288.5,65.5C 288.5,66.5 288.5,67.5 288.5,68.5C 291.833,68.5 295.167,68.5 298.5,68.5C 298.694,71.3297 299.361,73.9963 300.5,76.5C 303.025,77.64 305.692,78.3067 308.5,78.5C 308.335,81.8499 308.502,85.1832 309,88.5C 311.472,90.4555 313.305,92.7889 314.5,95.5C 317.36,96.0177 319.36,97.6843 320.5,100.5C 321.347,105.154 322.013,109.821 322.5,114.5C 323.5,114.5 324.5,114.5 325.5,114.5C 325.334,120.176 325.501,125.843 326,131.5C 327.049,133.107 328.549,133.773 330.5,133.5C 330.5,140.5 330.5,147.5 330.5,154.5C 329.167,154.5 327.833,154.5 326.5,154.5C 326.5,158.167 326.5,161.833 326.5,165.5C 324.857,165.48 323.524,166.147 322.5,167.5C 320.059,177.688 319.059,188.021 319.5,198.5C 314.482,198.613 309.482,198.947 304.5,199.5C 304.82,202.898 304.487,206.232 303.5,209.5C 301.929,210.309 300.262,210.643 298.5,210.5C 298.5,213.5 298.5,216.5 298.5,219.5C 294.217,220.011 290.217,219.344 286.5,217.5C 284.41,220.552 281.41,222.219 277.5,222.5C 276.754,223.736 276.421,225.07 276.5,226.5C 272.833,226.5 269.167,226.5 265.5,226.5C 265.5,227.833 265.5,229.167 265.5,230.5C 255.007,232.016 244.34,232.683 233.5,232.5C 222.464,232.165 211.464,231.499 200.5,230.5C 200.5,228.833 200.5,227.167 200.5,225.5C 197.833,225.5 195.167,225.5 192.5,225.5C 192.5,224.5 192.5,223.5 192.5,222.5C 190.319,222.716 188.653,221.883 187.5,220C 184.518,219.502 181.518,219.335 178.5,219.5C 178.296,216.482 177.963,213.482 177.5,210.5C 174.5,210.5 171.5,210.5 168.5,210.5C 168.768,212.099 168.434,213.432 167.5,214.5 Z"/></g>
<g><path style="opacity:1" fill="#353448" d="M 224.5,76.5 C 228.514,77.5427 230.18,80.2094 229.5,84.5C 231.465,83.871 233.465,83.2043 235.5,82.5C 236.994,82.7092 238.161,83.3759 239,84.5C 239.495,82.5273 239.662,80.5273 239.5,78.5C 241.57,78.5514 243.403,77.8847 245,76.5C 249.41,77.4082 251.243,80.0749 250.5,84.5C 252.826,83.8489 255.159,83.1822 257.5,82.5C 260.987,83.4267 262.32,85.7601 261.5,89.5C 266.5,89.5 271.5,89.5 276.5,89.5C 276.5,93.1667 276.5,96.8333 276.5,100.5C 279.85,100.335 283.183,100.502 286.5,101C 287.456,104.394 287.789,107.894 287.5,111.5C 293.826,111.174 296.159,114.174 294.5,120.5C 296.942,120.354 297.609,121.187 296.5,123C 298.941,137.086 299.108,151.253 297,165.5C 295.139,168.175 294.139,171.175 294,174.5C 292.088,175.692 290.088,176.692 288,177.5C 287.764,180.208 286.931,182.708 285.5,185C 285.905,185.945 286.572,186.612 287.5,187C 283.94,188.237 280.273,188.737 276.5,188.5C 276.528,190.582 275.861,192.416 274.5,194C 271.854,194.497 269.187,194.664 266.5,194.5C 265.833,197.167 265.167,199.833 264.5,202.5C 253.848,203.196 243.181,203.53 232.5,203.5C 232.5,201.833 232.5,200.167 232.5,198.5C 222.13,198.726 211.797,198.226 201.5,197C 200.549,193.943 200.216,190.777 200.5,187.5C 196.833,187.5 193.167,187.5 189.5,187.5C 189.5,183.833 189.5,180.167 189.5,176.5C 185.833,176.5 182.167,176.5 178.5,176.5C 178.5,154.833 178.5,133.167 178.5,111.5C 179.833,111.5 181.167,111.5 182.5,111.5C 182.5,109.167 182.5,106.833 182.5,104.5C 183.833,104.5 185.167,104.5 186.5,104.5C 186.5,103.167 186.5,101.833 186.5,100.5C 188.5,100.5 190.5,100.5 192.5,100.5C 192.993,98.1944 193.326,95.861 193.5,93.5C 195.527,93.6621 197.527,93.4955 199.5,93C 200.337,91.9887 200.67,90.8221 200.5,89.5C 202.5,89.5 204.5,89.5 206.5,89.5C 206.286,87.8561 206.62,86.3561 207.5,85C 209.838,84.1634 212.172,83.3301 214.5,82.5C 215.647,82.8178 216.481,83.4844 217,84.5C 217.333,83.1667 217.667,81.8333 218,80.5C 220.714,79.7939 222.881,78.4606 224.5,76.5 Z"/></g>
<g><path style="opacity:1" fill="#312f42" d="M 160.5,88.5 C 161.93,90.7105 163.597,92.7105 165.5,94.5C 165.392,95.4419 165.059,96.2753 164.5,97C 163.263,97.2321 162.263,97.7321 161.5,98.5C 158.365,99.4724 156.698,101.639 156.5,105C 153.854,105.497 151.187,105.664 148.5,105.5C 149.051,108.807 149.384,112.14 149.5,115.5C 144.678,115.648 140.012,114.981 135.5,113.5C 134.194,112.533 133.527,111.199 133.5,109.5C 131.856,109.714 130.356,109.38 129,108.5C 127.943,105.793 127.443,102.96 127.5,100C 129.166,85.8022 137.166,80.4689 151.5,84C 155.11,84.4717 158.11,85.9717 160.5,88.5 Z"/></g>
<g><path style="opacity:1" fill="#f4b7bd" d="M 161.5,98.5 C 164.123,105.18 162.456,111.013 156.5,116C 150.51,117.475 147.51,121.308 147.5,127.5C 145.362,127.019 143.695,125.852 142.5,124C 138.163,123.095 134.163,121.595 130.5,119.5C 130.792,116.199 132.459,114.199 135.5,113.5C 140.012,114.981 144.678,115.648 149.5,115.5C 149.384,112.14 149.051,108.807 148.5,105.5C 151.187,105.664 153.854,105.497 156.5,105C 156.698,101.639 158.365,99.4724 161.5,98.5 Z"/></g>
<g><path style="opacity:1" fill="#cecddf" d="M 130.5,119.5 C 134.163,121.595 138.163,123.095 142.5,124C 143.695,125.852 145.362,127.019 147.5,127.5C 149.608,129.059 151.941,130.392 154.5,131.5C 155.251,132.376 155.751,133.376 156,134.5C 158.175,150.778 159.842,167.112 161,183.5C 162.761,194.055 164.928,204.388 167.5,214.5C 167.395,218.548 167.728,222.548 168.5,226.5C 165.455,226.508 162.455,226.841 159.5,227.5C 157.784,226.426 156.784,224.759 156.5,222.5C 141.181,221.501 125.848,221.167 110.5,221.5C 110.784,223.415 110.451,225.081 109.5,226.5C 110.355,219.286 109.022,212.619 105.5,206.5C 106.376,206.631 107.043,206.298 107.5,205.5C 106.584,190.953 105.417,176.286 104,161.5C 103.148,160.429 102.315,159.429 101.5,158.5C 101.648,149.045 101.981,139.712 102.5,130.5C 102.334,135.511 102.501,140.511 103,145.5C 109.417,135.747 117.251,127.247 126.5,120C 127.793,119.51 129.127,119.343 130.5,119.5 Z"/></g>
<g><path style="opacity:1" fill="#bcbbcb" d="M 101.5,158.5 C 102.315,159.429 103.148,160.429 104,161.5C 105.417,176.286 106.584,190.953 107.5,205.5C 107.043,206.298 106.376,206.631 105.5,206.5C 101.03,200.047 98.0303,192.881 96.5,185C 96.8266,175.87 98.4932,167.037 101.5,158.5 Z"/></g>
<g><path style="opacity:1" fill="#313042" d="M 159.5,227.5 C 160.426,231.945 161.759,236.278 163.5,240.5C 161.983,242.936 162.316,245.102 164.5,247C 163.614,248.615 162.614,250.115 161.5,251.5C 161.5,256.833 161.5,262.167 161.5,267.5C 161.334,277.172 161.5,286.839 162,296.5C 163.66,306.124 164.993,315.79 166,325.5C 168.456,327.321 171.289,327.988 174.5,327.5C 172.393,328.468 170.059,328.802 167.5,328.5C 167.05,334.432 167.884,340.099 170,345.5C 172.302,347.574 174.968,348.908 178,349.5C 180.694,355.616 179.194,360.45 173.5,364C 171.062,365.182 168.729,366.515 166.5,368C 152.294,371.126 148.96,366.459 156.5,354C 153.881,344.401 151.215,334.901 148.5,325.5C 147.344,322.233 146.177,318.899 145,315.5C 141.523,293.967 137.19,272.634 132,251.5C 126.484,262.052 122.15,273.052 119,284.5C 118.047,286.455 116.713,288.122 115,289.5C 113.563,298.786 112.563,308.12 112,317.5C 111.308,318.025 110.808,318.692 110.5,319.5C 110.651,322.608 110.985,325.608 111.5,328.5C 112.276,330.974 113.776,331.641 116,330.5C 117.2,332.412 118.867,333.745 121,334.5C 121.5,336 122,337.5 122.5,339C 121.061,341.705 120.061,344.538 119.5,347.5C 114.512,349.303 109.845,351.803 105.5,355C 96.5131,357.676 93.0131,354.509 95,345.5C 99.4293,337.556 100.596,329.222 98.5,320.5C 97.9259,310.814 97.4259,301.147 97,291.5C 97.6836,283.076 100.35,275.41 105,268.5C 107.487,254.602 108.987,240.602 109.5,226.5C 110.451,225.081 110.784,223.415 110.5,221.5C 125.848,221.167 141.181,221.501 156.5,222.5C 156.784,224.759 157.784,226.426 159.5,227.5 Z"/></g>
<g><path style="opacity:1" fill="#f4b6bb" d="M 168.5,226.5 C 170.065,232.38 170.732,238.38 170.5,244.5C 167.163,244.813 164.829,243.48 163.5,240.5C 161.759,236.278 160.426,231.945 159.5,227.5C 162.455,226.841 165.455,226.508 168.5,226.5 Z"/></g>
<g><path style="opacity:1" fill="#f2f4f9" d="M 148.5,325.5 C 136.525,327.274 124.191,328.274 111.5,328.5C 110.985,325.608 110.651,322.608 110.5,319.5C 110.808,318.692 111.308,318.025 112,317.5C 112.563,308.12 113.563,298.786 115,289.5C 116.713,288.122 118.047,286.455 119,284.5C 122.15,273.052 126.484,262.052 132,251.5C 137.19,272.634 141.523,293.967 145,315.5C 146.177,318.899 147.344,322.233 148.5,325.5 Z"/></g>
<g><path style="opacity:1" fill="#bbbbc9" d="M 161.5,251.5 C 162.492,251.328 163.158,251.662 163.5,252.5C 162.833,257.5 162.167,262.5 161.5,267.5C 161.5,262.167 161.5,256.833 161.5,251.5 Z"/></g>
<g><path style="opacity:1" fill="#5663e9" d="M 49.5,294.5 C 51.7597,299.971 52.093,305.638 50.5,311.5C 52.4473,314.256 54.614,316.922 57,319.5C 59.1036,323.922 59.9369,328.588 59.5,333.5C 59.1667,333.5 58.8333,333.5 58.5,333.5C 56.2407,334.344 55.2407,336.011 55.5,338.5C 50.7443,338.72 50.0776,339.72 53.5,341.5C 51.2752,343.02 49.2752,344.686 47.5,346.5C 43.2201,347.54 38.8868,347.706 34.5,347C 31.9328,345.253 29.2662,343.753 26.5,342.5C 18.9752,331.602 19.9752,321.602 29.5,312.5C 24.3268,303.688 25.9935,296.522 34.5,291C 28.8973,284.96 29.2306,279.293 35.5,274C 46.1828,271.686 50.6828,275.853 49,286.5C 48.2155,288.286 47.0488,289.786 45.5,291C 47.3237,291.66 48.657,292.827 49.5,294.5 Z"/></g>
<g><path style="opacity:1" fill="#6069d9" d="M 49.5,294.5 C 52.8516,296.714 54.1849,299.881 53.5,304C 54.0121,307.263 53.0121,309.763 50.5,311.5C 52.093,305.638 51.7597,299.971 49.5,294.5 Z"/></g>
<g><path style="opacity:1" fill="#5562e7" d="M 280.5,343.5 C 278.266,344.819 276.932,346.819 276.5,349.5C 274.116,350.011 272.116,351.011 270.5,352.5C 264.085,353.917 257.751,353.584 251.5,351.5C 246.101,346.704 243.435,340.704 243.5,333.5C 245.08,325.417 249.747,319.917 257.5,317C 276.163,316.118 283.829,324.951 280.5,343.5 Z"/></g>
<g><path style="opacity:1" fill="#3f3e56" d="M 98.5,320.5 C 100.596,329.222 99.4293,337.556 95,345.5C 93.0131,354.509 96.5131,357.676 105.5,355C 109.845,351.803 114.512,349.303 119.5,347.5C 120.061,344.538 121.061,341.705 122.5,339C 122,337.5 121.5,336 121,334.5C 118.867,333.745 117.2,332.412 116,330.5C 113.776,331.641 112.276,330.974 111.5,328.5C 124.191,328.274 136.525,327.274 148.5,325.5C 151.215,334.901 153.881,344.401 156.5,354C 148.96,366.459 152.294,371.126 166.5,368C 168.729,366.515 171.062,365.182 173.5,364C 179.194,360.45 180.694,355.616 178,349.5C 174.968,348.908 172.302,347.574 170,345.5C 167.884,340.099 167.05,334.432 167.5,328.5C 170.059,328.802 172.393,328.468 174.5,327.5C 197.645,327.981 220.645,329.981 243.5,333.5C 243.435,340.704 246.101,346.704 251.5,351.5C 254.851,353.893 258.684,354.893 263,354.5C 265.167,354.333 267.333,354.167 269.5,354C 270.056,353.617 270.389,353.117 270.5,352.5C 272.116,351.011 274.116,350.011 276.5,349.5C 276.932,346.819 278.266,344.819 280.5,343.5C 286.819,344.941 288.985,348.608 287,354.5C 279.91,359.535 272.077,363.035 263.5,365C 189.15,378.914 114.817,378.914 40.5,365C 35.4403,363.486 30.4403,361.819 25.5,360C 13.2577,353.39 13.591,347.557 26.5,342.5C 29.2662,343.753 31.9328,345.253 34.5,347C 38.8868,347.706 43.2201,347.54 47.5,346.5C 50.1556,345.618 52.6556,344.285 55,342.5C 55.8886,339.324 57.0553,336.324 58.5,333.5C 58.8333,333.5 59.1667,333.5 59.5,333.5C 72.4154,331.435 85.4154,330.102 98.5,329.5C 98.5,326.5 98.5,323.5 98.5,320.5 Z"/></g>
<g><path style="opacity:1" fill="#555bc9" d="M 58.5,333.5 C 57.0553,336.324 55.8886,339.324 55,342.5C 52.6556,344.285 50.1556,345.618 47.5,346.5C 49.2752,344.686 51.2752,343.02 53.5,341.5C 50.0776,339.72 50.7443,338.72 55.5,338.5C 55.2407,336.011 56.2407,334.344 58.5,333.5 Z"/></g>
<g><path style="opacity:1" fill="#4e53a1" d="M 251.5,351.5 C 257.751,353.584 264.085,353.917 270.5,352.5C 270.389,353.117 270.056,353.617 269.5,354C 267.333,354.167 265.167,354.333 263,354.5C 258.684,354.893 254.851,353.893 251.5,351.5 Z"/></g>
</svg>
